<svg width="111" height="29" viewBox="0 0 111 29" fill="none" xmlns="http://www.w3.org/2000/svg">
<path d="M29.3182 12.6477L29.7045 10.3636H39.5398L39.1534 12.6477H35.625L34.0795 22H31.3068L32.8523 12.6477H29.3182ZM38.0753 22L39.5298 13.2727H42.2287L41.9616 14.8636H42.0526C42.3063 14.2879 42.6378 13.8598 43.0469 13.5795C43.456 13.2955 43.8991 13.1534 44.3764 13.1534C44.5052 13.1534 44.634 13.1629 44.7628 13.1818C44.8954 13.197 45.0204 13.2197 45.1378 13.25L44.7287 15.6705C44.5999 15.6212 44.4313 15.5852 44.223 15.5625C44.0147 15.536 43.8253 15.5227 43.6548 15.5227C43.3253 15.5227 43.0185 15.5966 42.7344 15.7443C42.4541 15.8883 42.2154 16.0909 42.0185 16.3523C41.8253 16.6098 41.6984 16.9129 41.6378 17.2614L40.8537 22H38.0753ZM46.919 22.1477C46.366 22.1477 45.8887 22.0549 45.4872 21.8693C45.0895 21.6799 44.7978 21.3939 44.6122 21.0114C44.4304 20.6288 44.3868 20.1515 44.4815 19.5795C44.5649 19.0947 44.7183 18.6875 44.9418 18.358C45.169 18.0246 45.4474 17.7538 45.777 17.5455C46.1103 17.3371 46.4815 17.178 46.8906 17.0682C47.2997 16.9583 47.7277 16.8845 48.1747 16.8466C48.6747 16.8011 49.08 16.7519 49.3906 16.6989C49.705 16.6458 49.9399 16.572 50.0952 16.4773C50.2505 16.3788 50.3452 16.2424 50.3793 16.0682V16.0398C50.4247 15.7481 50.3622 15.5227 50.1918 15.3636C50.0213 15.2045 49.7656 15.125 49.4247 15.125C49.0611 15.125 48.7505 15.2045 48.4929 15.3636C48.2353 15.5227 48.0554 15.7424 47.9531 16.0227L45.4077 15.9318C45.5668 15.4015 45.8395 14.928 46.2259 14.5114C46.6122 14.0909 47.1027 13.7614 47.6974 13.5227C48.2959 13.2803 48.9872 13.1591 49.7713 13.1591C50.3243 13.1591 50.8243 13.2254 51.2713 13.358C51.7183 13.4867 52.0952 13.6761 52.402 13.9261C52.7126 14.1723 52.9342 14.4754 53.0668 14.8352C53.1993 15.1951 53.2277 15.6061 53.152 16.0682L52.1577 22H49.544L49.7486 20.7841H49.6804C49.4759 21.0795 49.2353 21.3295 48.9588 21.5341C48.6861 21.7386 48.3793 21.892 48.0384 21.9943C47.6974 22.0966 47.3243 22.1477 46.919 22.1477ZM48.0895 20.3295C48.3812 20.3295 48.6577 20.2689 48.919 20.1477C49.1804 20.0265 49.4001 19.8598 49.5781 19.6477C49.7599 19.4318 49.8755 19.1818 49.9247 18.8977L50.0554 18.0682C49.9759 18.1098 49.8755 18.1477 49.7543 18.1818C49.633 18.2159 49.5043 18.2481 49.3679 18.2784C49.2315 18.3049 49.0914 18.3314 48.9474 18.358C48.8073 18.3807 48.6728 18.4015 48.544 18.4205C48.2713 18.4621 48.0346 18.5265 47.8338 18.6136C47.633 18.7008 47.4721 18.8144 47.3509 18.9545C47.2334 19.0909 47.1615 19.2538 47.1349 19.4432C47.0895 19.7273 47.1558 19.947 47.3338 20.1023C47.5118 20.2538 47.7637 20.3295 48.0895 20.3295ZM57.4815 17.0227L56.652 22H53.8736L55.3281 13.2727H57.9702L57.7088 14.875H57.8054C58.0781 14.3409 58.474 13.9223 58.9929 13.6193C59.5118 13.3125 60.0952 13.1591 60.7429 13.1591C61.3527 13.1591 61.8622 13.2955 62.2713 13.5682C62.6804 13.8409 62.9702 14.2235 63.1406 14.7159C63.3111 15.2045 63.3395 15.7784 63.2259 16.4375L62.294 22H59.5156L60.3509 16.983C60.4342 16.5019 60.3755 16.125 60.1747 15.8523C59.9777 15.5758 59.6558 15.4375 59.2088 15.4375C58.9171 15.4375 58.6501 15.5019 58.4077 15.6307C58.169 15.7557 57.9683 15.9356 57.8054 16.1705C57.6463 16.4053 57.5384 16.6894 57.4815 17.0227ZM72.6051 15.9375L70.0994 16.0057C70.1032 15.8201 70.0616 15.6572 69.9744 15.517C69.8873 15.3731 69.7642 15.2614 69.6051 15.1818C69.446 15.1023 69.2566 15.0625 69.0369 15.0625C68.6809 15.0625 68.3608 15.142 68.0767 15.3011C67.7964 15.4602 67.6392 15.6667 67.6051 15.9205C67.5786 16.0568 67.6165 16.1761 67.7188 16.2784C67.821 16.3769 68.0483 16.464 68.4006 16.5398L70.0369 16.858C70.8778 17.0246 71.4877 17.3144 71.8665 17.7273C72.2491 18.1364 72.3854 18.678 72.2756 19.3523C72.1771 19.928 71.9233 20.4261 71.5142 20.8466C71.1089 21.267 70.5919 21.5928 69.9631 21.8239C69.3381 22.0511 68.6468 22.1648 67.8892 22.1648C66.6089 22.1648 65.643 21.9072 64.9915 21.392C64.3438 20.8731 64.0407 20.1856 64.0824 19.3295L66.7869 19.2614C66.7983 19.5833 66.9062 19.8258 67.1108 19.9886C67.3191 20.1477 67.6013 20.2311 67.9574 20.2386C68.3475 20.2462 68.6847 20.1648 68.9688 19.9943C69.2528 19.8239 69.4119 19.6136 69.446 19.3636C69.4688 19.2008 69.4138 19.0739 69.2812 18.983C69.1525 18.892 68.9119 18.8106 68.5597 18.7386L67.0824 18.4489C66.2339 18.286 65.6203 17.9792 65.2415 17.5284C64.8665 17.0739 64.7377 16.4943 64.8551 15.7898C64.9536 15.2292 65.1847 14.7538 65.5483 14.3636C65.9157 13.9697 66.3949 13.6705 66.9858 13.4659C67.5805 13.2614 68.2585 13.1591 69.0199 13.1591C70.2396 13.1591 71.16 13.4072 71.7812 13.9034C72.4062 14.3958 72.6809 15.0739 72.6051 15.9375ZM77.9105 10.3636L75.9787 22H73.2003L75.1321 10.3636H77.9105ZM80.1847 22.1477C79.6316 22.1477 79.1544 22.0549 78.7528 21.8693C78.3551 21.6799 78.0634 21.3939 77.8778 21.0114C77.696 20.6288 77.6525 20.1515 77.7472 19.5795C77.8305 19.0947 77.9839 18.6875 78.2074 18.358C78.4347 18.0246 78.7131 17.7538 79.0426 17.5455C79.3759 17.3371 79.7472 17.178 80.1562 17.0682C80.5653 16.9583 80.9934 16.8845 81.4403 16.8466C81.9403 16.8011 82.3456 16.7519 82.6562 16.6989C82.9706 16.6458 83.2055 16.572 83.3608 16.4773C83.5161 16.3788 83.6108 16.2424 83.6449 16.0682V16.0398C83.6903 15.7481 83.6278 15.5227 83.4574 15.3636C83.2869 15.2045 83.0312 15.125 82.6903 15.125C82.3267 15.125 82.0161 15.2045 81.7585 15.3636C81.5009 15.5227 81.321 15.7424 81.2188 16.0227L78.6733 15.9318C78.8324 15.4015 79.1051 14.928 79.4915 14.5114C79.8778 14.0909 80.3684 13.7614 80.9631 13.5227C81.5616 13.2803 82.2528 13.1591 83.0369 13.1591C83.59 13.1591 84.09 13.2254 84.5369 13.358C84.9839 13.4867 85.3608 13.6761 85.6676 13.9261C85.9782 14.1723 86.1998 14.4754 86.3324 14.8352C86.465 15.1951 86.4934 15.6061 86.4176 16.0682L85.4233 22H82.8097L83.0142 20.7841H82.946C82.7415 21.0795 82.5009 21.3295 82.2244 21.5341C81.9517 21.7386 81.6449 21.892 81.304 21.9943C80.9631 22.0966 80.59 22.1477 80.1847 22.1477ZM81.3551 20.3295C81.6468 20.3295 81.9233 20.2689 82.1847 20.1477C82.446 20.0265 82.6657 19.8598 82.8438 19.6477C83.0256 19.4318 83.1411 19.1818 83.1903 18.8977L83.321 18.0682C83.2415 18.1098 83.1411 18.1477 83.0199 18.1818C82.8987 18.2159 82.7699 18.2481 82.6335 18.2784C82.4972 18.3049 82.357 18.3314 82.2131 18.358C82.0729 18.3807 81.9384 18.4015 81.8097 18.4205C81.5369 18.4621 81.3002 18.5265 81.0994 18.6136C80.8987 18.7008 80.7377 18.8144 80.6165 18.9545C80.4991 19.0909 80.4271 19.2538 80.4006 19.4432C80.3551 19.7273 80.4214 19.947 80.5994 20.1023C80.7775 20.2538 81.0294 20.3295 81.3551 20.3295ZM93.5028 13.2727L93.1562 15.3182H87.6506L87.9972 13.2727H93.5028ZM89.4915 11.1818H92.2699L90.929 19.2557C90.9025 19.4261 90.9063 19.5644 90.9403 19.6705C90.9782 19.7727 91.0464 19.8466 91.1449 19.892C91.2472 19.9337 91.3722 19.9545 91.5199 19.9545C91.6222 19.9545 91.7358 19.9432 91.8608 19.9205C91.9858 19.8977 92.0805 19.8807 92.1449 19.8693L92.2358 21.875C92.0881 21.9167 91.8892 21.964 91.6392 22.017C91.393 22.0739 91.1051 22.1098 90.7756 22.125C90.1089 22.1515 89.5578 22.0739 89.1222 21.892C88.6903 21.7064 88.3854 21.4186 88.2074 21.0284C88.0331 20.6383 87.9991 20.1496 88.1051 19.5625L89.4915 11.1818ZM97.4403 22.1648C96.5199 22.1648 95.7604 21.9754 95.1619 21.5966C94.5672 21.2178 94.1487 20.6894 93.9062 20.0114C93.6638 19.3333 93.6165 18.5455 93.7642 17.6477C93.9119 16.7538 94.2169 15.9697 94.679 15.2955C95.1411 14.6212 95.732 14.0966 96.4517 13.7216C97.1714 13.3466 97.9877 13.1591 98.9006 13.1591C99.8172 13.1591 100.573 13.3485 101.168 13.7273C101.766 14.1061 102.187 14.6345 102.429 15.3125C102.675 15.9905 102.724 16.7803 102.577 17.6818C102.429 18.5758 102.122 19.3598 101.656 20.0341C101.19 20.7045 100.599 21.2273 99.8835 21.6023C99.1676 21.9773 98.3532 22.1648 97.4403 22.1648ZM97.7528 20.0682C98.0938 20.0682 98.3987 19.9659 98.6676 19.7614C98.9403 19.5568 99.1695 19.2708 99.3551 18.9034C99.5407 18.536 99.6733 18.1098 99.7528 17.625C99.8324 17.1477 99.84 16.7292 99.7756 16.3693C99.715 16.0057 99.5862 15.7235 99.3892 15.5227C99.1922 15.3182 98.9252 15.2159 98.5881 15.2159C98.2472 15.2159 97.9403 15.3201 97.6676 15.5284C97.3949 15.733 97.1657 16.0189 96.9801 16.3864C96.7983 16.75 96.6676 17.1761 96.5881 17.6648C96.5085 18.142 96.4991 18.5606 96.5597 18.9205C96.6203 19.2803 96.7509 19.5625 96.9517 19.767C97.1525 19.9678 97.4195 20.0682 97.7528 20.0682ZM103.278 22L104.733 13.2727H107.432L107.165 14.8636H107.256C107.509 14.2879 107.841 13.8598 108.25 13.5795C108.659 13.2955 109.102 13.1534 109.58 13.1534C109.708 13.1534 109.837 13.1629 109.966 13.1818C110.098 13.197 110.223 13.2197 110.341 13.25L109.932 15.6705C109.803 15.6212 109.634 15.5852 109.426 15.5625C109.218 15.536 109.028 15.5227 108.858 15.5227C108.528 15.5227 108.222 15.5966 107.938 15.7443C107.657 15.8883 107.419 16.0909 107.222 16.3523C107.028 16.6098 106.902 16.9129 106.841 17.2614L106.057 22H103.278Z" fill="url(#paint0_linear_2314_15)"/>
<path d="M13.2916 4.83332C14.0758 4.83332 14.802 5.08224 15.3953 5.50515C13.8342 6.31836 12.3987 7.34182 10.875 8.22149L12.0833 10.3143C13.9864 9.21474 15.7711 7.83724 17.835 7.04457C18.4114 6.82466 19.0344 6.75546 19.6451 6.84353C20.2557 6.9316 20.8338 7.17401 21.3246 7.54784C21.8155 7.92168 22.2028 8.41456 22.45 8.97985C22.6971 9.54515 22.796 10.1642 22.7372 10.7783C21.2521 9.83219 19.6475 9.09994 18.125 8.22149L16.9166 10.3143C18.8198 11.4139 20.9065 12.2694 22.6236 13.6614C23.1021 14.0507 23.4734 14.5557 23.7023 15.1285C23.9313 15.7014 24.0103 16.3232 23.9319 16.935C23.8535 17.5469 23.6203 18.1287 23.2543 18.6253C22.8884 19.122 22.4018 19.517 21.8406 19.7732C21.9191 18.0138 21.75 16.2581 21.75 14.5H19.3333C19.3333 16.6967 19.6354 18.9334 19.2886 21.1168C19.1906 21.7259 18.9388 22.3 18.5571 22.7847C18.1754 23.2693 17.6763 23.6486 17.1071 23.8865C16.5379 24.1245 15.9174 24.2133 15.3043 24.1446C14.6912 24.0758 14.1057 23.8518 13.6034 23.4936C15.1658 22.6804 16.6025 21.6569 18.125 20.7785L16.9166 18.6857C15.0135 19.7852 13.2288 21.1627 11.165 21.9554C10.5885 22.1753 9.96549 22.2445 9.35483 22.1564C8.74418 22.0684 8.1661 21.826 7.67528 21.4521C7.18446 21.0783 6.79714 20.5854 6.54996 20.0201C6.30279 19.4548 6.20393 18.8358 6.26275 18.2217C7.749 19.1666 9.35246 19.8988 10.875 20.7785L12.0833 18.6857C10.1802 17.5861 8.09338 16.7306 6.37513 15.3386C5.89665 14.9492 5.52542 14.4441 5.29658 13.8712C5.06774 13.2983 4.98884 12.6765 5.06736 12.0646C5.14587 11.4527 5.3792 10.8709 5.74527 10.3744C6.11134 9.87779 6.59804 9.48282 7.15934 9.22682C7.08079 10.9862 7.24996 12.7419 7.24996 14.5H9.66663C9.66663 12.3032 9.36454 10.0666 9.71134 7.88315C9.84833 7.03225 10.2839 6.25796 10.94 5.69908C11.5961 5.1402 12.4298 4.83328 13.2916 4.83332ZM17.8748 4.52157C17.1761 3.70835 16.2735 3.0957 15.2597 2.74649C14.246 2.39727 13.1576 2.32407 12.1062 2.5344C11.0548 2.74472 10.0784 3.23099 9.27698 3.94332C8.47559 4.65564 7.87817 5.56836 7.546 6.58782C6.4923 6.78636 5.51041 7.2617 4.70108 7.96504C3.89176 8.66839 3.28415 9.57441 2.94061 10.5901C2.59708 11.6058 2.52999 12.6947 2.74624 13.7449C2.96248 14.7951 3.45427 15.7689 4.17113 16.5662C3.81609 17.5781 3.73673 18.6663 3.94119 19.719C4.14566 20.7717 4.62658 21.7511 5.3346 22.5565C6.04262 23.362 6.95222 23.9645 7.97004 24.3022C8.98785 24.64 10.0772 24.7008 11.1263 24.4784C11.8251 25.2916 12.7277 25.9043 13.7414 26.2535C14.7551 26.6027 15.8435 26.6759 16.8949 26.4656C17.9463 26.2553 18.9228 25.769 19.7242 25.0567C20.5255 24.3443 21.123 23.4316 21.4551 22.4122C22.5088 22.2136 23.4907 21.7383 24.3 21.0349C25.1094 20.3316 25.717 19.4256 26.0605 18.4098C26.4041 17.3941 26.4711 16.3053 26.2549 15.2551C26.0387 14.2049 25.5469 13.2311 24.83 12.4337C25.185 11.4218 25.2644 10.3337 25.0599 9.28094C24.8555 8.22822 24.3745 7.24888 23.6665 6.44344C22.9585 5.638 22.0489 5.03549 21.0311 4.69774C20.0133 4.36 18.9239 4.29919 17.8748 4.52157Z" fill="url(#paint1_radial_2314_15)"/>
<defs>
<linearGradient id="paint0_linear_2314_15" x1="28" y1="16.5" x2="110" y2="16.5" gradientUnits="userSpaceOnUse">
<stop offset="0.42" stop-color="#5F9BE1"/>
<stop offset="1" stop-color="#17F4E7"/>
</linearGradient>
<radialGradient id="paint1_radial_2314_15" cx="0" cy="0" r="1" gradientUnits="userSpaceOnUse" gradientTransform="translate(14.5006 14.5) rotate(90) scale(12.083 11.8785)">
<stop offset="0.0001" stop-color="#17F4E7"/>
<stop offset="1" stop-color="#5F9BE1"/>
</radialGradient>
</defs>
</svg>
